<svg width="23" height="27" viewBox="0 0 23 27" fill="none" xmlns="http://www.w3.org/2000/svg">
<path d="M1.41733 18.1332C1.36029 18.1752 1.31846 18.2352 1.29832 18.3038C1.27818 18.3725 1.28086 18.4459 1.30595 18.5129C2.87752 22.7072 5.58846 23.1948 9.36576 24.0176C9.36576 24.573 9.33059 25.1463 9.72015 25.4229C10.2318 25.8091 11.2049 26 12.1945 26C13.2251 26 14.2729 25.7928 14.8404 25.3817C15.3024 25.0644 15.246 24.4488 15.2492 23.8543C16.5953 23.7572 17.9084 22.8672 18.4813 21.6083C20.5991 20.5495 21.9943 18.2596 22.7004 14.8208C22.7134 14.7568 22.7071 14.6902 22.6824 14.6298C22.6577 14.5694 22.6157 14.518 22.5618 14.4823C22.508 14.4466 22.4448 14.4282 22.3805 14.4296C22.3163 14.4309 22.2539 14.452 22.2016 14.49L22.0476 14.6017C22.1713 13.8744 22.1457 13.1289 21.9724 12.4121C22.1456 10.6732 22.1856 8.66963 21.4219 6.89982C21.396 6.84112 21.3536 6.79155 21.3001 6.75738C21.2465 6.7232 21.1842 6.70595 21.121 6.70781C21.0578 6.70967 20.9966 6.73055 20.945 6.76781C20.8935 6.80508 20.854 6.85705 20.8314 6.91717C20.6138 7.49767 20.361 8.06392 20.0747 8.61268C19.7437 6.83874 18.9569 5.18571 17.7944 3.82177C17.7517 3.77199 17.6951 3.73661 17.6322 3.72035C17.5692 3.70409 17.5029 3.70771 17.4421 3.73073C17.3812 3.75375 17.3287 3.79508 17.2915 3.84923C17.2543 3.90337 17.2341 3.96776 17.2337 4.03384L16.8261 3.94001C16.1567 2.78201 15.0003 1.93751 13.8087 1.75744C13.6355 1.72707 13.5044 1.8529 13.4319 1.99989C12.8622 1.63215 12.1721 1.53452 11.5768 1.44611C11.2118 1.00678 10.7242 0.8126 10.0708 1.23458C10.0046 1.28981 9.946 1.35384 9.89655 1.42496C9.84498 1.37372 9.77792 1.34172 9.70624 1.33414C9.63457 1.32656 9.56247 1.34384 9.50166 1.38319C9.17555 1.59775 8.89547 1.87727 8.6783 2.20491C7.81978 2.54011 6.9005 3.26962 6.23275 3.89662C6.20179 3.86009 6.16323 3.83102 6.11987 3.81153C6.07651 3.79203 6.02944 3.78259 5.98205 3.78389C5.93467 3.78519 5.88816 3.79719 5.8459 3.81903C5.80363 3.84087 5.76666 3.87201 5.73768 3.91018C5.08539 4.77221 4.5848 5.61562 4.23592 6.44041C4.00179 5.92411 3.85616 5.37085 3.80532 4.80457C3.79957 4.73961 3.77476 4.6779 3.73413 4.62746C3.69349 4.57702 3.6389 4.54017 3.57743 4.52169C3.51596 4.50322 3.45046 4.50397 3.38942 4.52385C3.32838 4.54373 3.27461 4.58182 3.2351 4.63318C1.7552 6.56137 0.909992 9.46043 0.957955 12.168L0.908394 12.0482C0.879385 11.9768 0.826417 11.9184 0.758947 11.8831C0.691476 11.8479 0.613897 11.8382 0.540059 11.8558C0.466221 11.8734 0.400932 11.9171 0.355849 11.9792C0.310767 12.0412 0.288825 12.1176 0.293942 12.1946C0.415447 13.9845 0.69203 16.0336 1.71203 18.0909C1.66322 18.0731 1.61089 18.0677 1.55955 18.075C1.50821 18.0824 1.4594 18.1024 1.41733 18.1332ZM2.41441 19.4219C4.09363 20.594 5.75793 21.1657 8.09476 21.413C7.96793 21.7303 7.85388 21.9663 7.81338 22.3194C7.74144 22.7614 7.69028 22.9301 7.55971 22.9409C5.40887 22.4284 3.64758 21.7645 2.41441 19.4219ZM2.78745 15.4359C2.60999 14.5307 3.2026 10.9449 3.98651 10.2328C4.08191 10.3738 4.29987 10.6553 4.69636 10.511C4.73739 10.5197 4.83971 10.5783 5.01131 10.8956C5.72408 12.2168 6.75618 13.3311 8.01003 14.1331C7.84722 14.4428 7.70566 14.7636 7.58636 15.0931C7.43554 15.0535 7.26661 15.0817 7.11686 15.1127C6.84454 15.1636 6.7305 15.1739 6.61805 15.0817C6.30843 14.8832 5.72382 15.0134 5.31188 15.6046C4.88554 16.2012 4.65746 17.0967 4.54661 17.708C3.92284 17.0015 3.33583 16.2623 2.78799 15.4934C2.78939 15.4743 2.78921 15.455 2.78745 15.4359ZM8.45288 3.82177C8.73266 4.24483 9.12435 4.18625 9.42545 3.9194C9.45103 3.89933 9.48461 3.87275 9.51232 3.85377C9.79263 4.03113 9.98821 4.54206 10.1369 4.95915C10.0042 4.92498 9.80968 4.97054 9.73294 5.10668C9.50432 5.49069 9.22614 5.84704 8.97674 6.21478C8.92344 6.23865 8.87015 6.26577 8.81686 6.288C7.93275 5.66805 7.19627 6.94863 6.72517 7.8734C6.68431 7.3368 6.65518 6.79966 6.63777 6.26197C6.69414 6.23172 6.74021 6.18483 6.76993 6.12746C7.28526 5.13543 7.8379 4.37826 8.45288 3.82177ZM12.2792 4.02354C12.2675 4.31154 12.2798 4.60004 12.316 4.88593C11.7831 4.66138 11.1185 4.56755 10.7364 4.73298C10.6375 4.43126 10.511 4.13963 10.3586 3.8619C11.1681 2.80154 11.3903 3.08195 12.2792 4.02354ZM19.521 11.8545C18.6918 13.3575 17.7789 14.8425 16.4999 15.981C16.4317 15.9599 16.3624 15.9398 16.2926 15.9219C15.6583 14.6495 14.8577 13.4703 13.9126 12.4164C13.515 11.925 13.069 11.5969 12.6086 11.4401C12.9933 10.2344 13.1532 8.81119 13.9526 7.8772C13.9957 7.81266 14.0352 7.79964 14.2995 7.83272C14.4924 7.85659 14.7333 7.88696 14.9603 7.77035C14.9872 7.75592 15.012 7.73766 15.0339 7.71611C15.1202 7.63475 15.1516 7.64506 15.1724 7.65211C17.1911 8.04805 18.5085 9.97895 19.521 11.8545ZM21.0414 15.8644C20.6204 16.9568 19.901 18.0426 19.052 18.8888C19.0307 17.632 18.2271 16.8038 17.157 16.2457C18.5708 14.9304 19.4885 13.2344 20.4014 11.5942C20.5703 11.6723 20.8053 11.5942 20.9306 11.5649C21.8205 13.0082 21.4661 14.7807 21.0435 15.8644H21.0414ZM15.2044 21.8057C13.9787 21.4033 12.8159 20.4969 11.6871 19.9979C12.7375 19.0759 13.6008 18.0909 14.4775 16.8136C14.8377 16.9763 15.2998 16.7865 15.4751 16.4388C17.2018 16.5841 19.0654 17.9813 18.193 19.7625L17.4192 20.5251C17.2401 20.2285 16.8239 20.1813 16.6124 20.4709C16.1773 20.9519 15.7066 21.3982 15.2044 21.8057ZM10.568 12.0015C10.6645 11.9766 10.7322 11.9869 10.8153 12.11C10.8614 12.1787 10.9316 12.2268 11.0115 12.2445C11.0914 12.2621 11.1749 12.248 11.2448 12.2049C12.2664 11.5812 13.11 12.443 13.4388 12.8487C14.2406 13.7411 14.9344 14.7281 15.5055 15.7885C15.3989 15.7841 15.2838 15.7603 15.1857 15.8129C15.0769 15.8733 14.9895 15.9671 14.9358 16.0808C14.9283 16.096 14.9161 16.1155 14.9092 16.1307C14.8873 16.1697 14.8514 16.1985 14.809 16.211C14.7861 16.2201 14.7613 16.2229 14.737 16.2191C14.7194 16.16 14.6858 16.1071 14.6401 16.0664C14.5943 16.0258 14.5382 15.9992 14.4782 15.9896C14.4182 15.98 14.3568 15.9877 14.301 16.012C14.2451 16.0363 14.1971 16.0761 14.1625 16.1269C13.4165 17.2524 12.6933 18.1441 11.863 18.9533C10.4593 18.3442 9.43771 17.0094 8.53335 15.827C8.42156 15.6732 8.29557 15.5306 8.15711 15.4012C8.37028 14.618 9.75906 12.2103 10.568 12.0015ZM14.381 7.18566C14.1295 7.15474 13.7101 7.10213 13.4372 7.49753C12.7865 8.28182 12.5313 9.27114 12.2829 10.2301C11.6388 8.92595 10.8684 7.69043 9.98341 6.54184C9.91052 6.43961 9.82388 6.34832 9.72602 6.27065C9.86422 6.07973 9.99763 5.88555 10.1262 5.68812C10.2023 5.73448 10.2886 5.76076 10.3772 5.7646C10.706 5.7646 10.8238 5.51673 10.9213 5.35835C11.9472 4.99224 13.9456 6.51635 14.3821 7.18457L14.381 7.18566ZM7.01241 8.77377C7.77768 7.04084 8.2152 6.8087 8.32978 6.77886C8.35589 6.77236 8.38893 6.76368 8.45501 6.8331C8.67191 7.04247 9.0183 6.92856 9.17551 6.8407C9.22024 6.81644 9.26741 6.79717 9.3162 6.7832C9.32953 6.787 9.36949 6.80924 9.47608 6.94592C10.5062 8.27477 11.2917 9.63616 12.0255 11.1684C12.0085 11.2226 11.9893 11.2801 11.9723 11.336C11.6861 11.3378 11.4037 11.4028 11.1446 11.5264C10.163 10.7882 8.9762 12.4875 8.32338 13.569C7.43033 12.9928 6.65733 12.2435 6.04837 11.3637C6.20131 10.9553 6.49815 9.92471 7.01241 8.77377ZM5.82934 15.9875C6.03877 15.6946 6.20238 15.6496 6.2999 15.6491C6.69852 15.9045 7.04598 15.7749 7.40464 15.7228C7.6178 15.7337 7.83097 15.9707 8.02601 16.2267C8.92451 17.4015 9.93332 18.719 11.3493 19.4301C11.2129 19.551 11.0738 19.6714 10.9304 19.7907C10.5893 19.762 10.3026 19.8482 10.0735 20.0484C9.37696 19.4143 8.72786 20.0299 8.36815 20.786C7.13232 20.6678 6.09366 20.4606 5.14614 20.1211C4.88341 19.3389 5.12695 16.9692 5.82934 15.9881V15.9875ZM8.26369 23.1047C8.42357 22.7647 8.42357 22.3752 8.51683 22.0775C8.69536 21.6723 9.0636 20.5517 9.46435 20.4416C9.54909 20.4313 9.68125 20.542 9.81714 20.7378C9.84791 20.7815 9.88883 20.8167 9.93625 20.8404C9.98367 20.8641 10.0361 20.8754 10.0889 20.8734C10.1417 20.8715 10.1932 20.8562 10.2387 20.829C10.2843 20.8018 10.3226 20.7636 10.3501 20.7177C10.6746 20.1688 11.3184 20.4698 12.7103 21.2877C13.2843 21.6246 13.9201 21.9977 14.5841 22.2705C13.2891 23.172 11.5997 23.8939 9.80169 23.4557C9.2757 23.3255 8.77583 23.217 8.26369 23.1047ZM17.3547 22.1485C17.0422 22.4873 16.6648 22.7572 16.2457 22.9416C15.8266 23.1259 15.3748 23.2208 14.9182 23.2203C14.8645 23.2227 14.8123 23.2389 14.7664 23.2674C14.7204 23.2958 14.6823 23.3356 14.6555 23.383C14.6306 23.429 14.6168 23.4802 14.615 23.5327C14.6091 23.7263 14.6097 23.8993 14.6097 24.0517C14.6097 24.5779 14.6001 24.7568 14.469 24.8518C13.604 25.4798 10.9096 25.5091 10.0991 24.8995C10.0021 24.829 10.0031 24.5252 10.0037 24.1586C12.6144 24.6646 15.3323 22.8335 16.9097 21.0979C16.928 21.1757 16.9605 21.2493 17.0056 21.3149C17.0324 21.353 17.0668 21.3849 17.1068 21.4082C17.1467 21.4315 17.1911 21.4458 17.2369 21.4501C17.2827 21.4544 17.329 21.4485 17.3724 21.433C17.4158 21.4174 17.4554 21.3925 17.4885 21.3599L18.0992 20.7584C17.9762 21.2801 17.7193 21.7593 17.3547 22.1469V22.1485ZM21.8845 15.5205C21.2588 17.9884 20.2106 19.7257 18.7605 20.7014C18.8008 20.46 18.8158 20.2149 18.8053 19.9703C20.2188 18.8394 21.2697 17.3061 21.8243 15.5655L21.8845 15.5205ZM17.408 4.74328C17.4521 4.75316 17.4977 4.75344 17.5419 4.74409C17.586 4.73474 17.6278 4.71598 17.6643 4.68905C18.7432 6.12047 19.4024 7.83324 19.5658 9.62965C19.5718 9.69778 19.5988 9.76224 19.6428 9.81388C19.6869 9.86552 19.7458 9.90172 19.8112 9.91733C19.8767 9.93294 19.9453 9.92717 20.0073 9.90085C20.0693 9.87452 20.1216 9.82898 20.1568 9.77068C20.5141 9.17797 20.8325 8.56193 21.1102 7.92656C21.4102 8.96577 21.455 10.0793 21.4177 11.144C21.2045 10.895 20.9993 10.8728 20.7526 10.9379L20.7073 10.8131C20.6863 10.7551 20.6495 10.7042 20.6012 10.6667C20.5529 10.6291 20.495 10.6063 20.4345 10.6011C20.3739 10.5958 20.3131 10.6082 20.2592 10.6368C20.2053 10.6654 20.1605 10.7091 20.1301 10.7627C20.0495 10.9048 19.9694 11.0478 19.8898 11.1917C19.1213 9.826 18.1845 8.47111 16.9156 7.66621C17.1071 6.67852 17.1646 5.66878 17.0866 4.66518L17.408 4.74328ZM13.9254 2.43976C14.9619 2.67082 15.9132 3.50556 16.4376 4.55779C16.5241 5.4881 16.4868 6.42605 16.3267 7.3462C16.0143 7.20245 15.687 7.09493 15.3509 7.02565C15.2459 6.99365 15.1349 6.98733 15.0269 7.00721C14.6901 6.42089 13.8945 5.72284 13.0482 5.23957C12.8937 4.90112 12.8532 3.65851 13.0583 3.29023C13.0809 3.30514 13.1023 3.32183 13.1223 3.34013C13.1594 3.37327 13.2035 3.39722 13.2513 3.4101C13.299 3.42297 13.349 3.42442 13.3974 3.41434C13.4458 3.40425 13.4912 3.3829 13.5301 3.35195C13.569 3.32101 13.6003 3.28132 13.6216 3.23599C13.7431 2.98215 13.8119 2.69035 13.9254 2.43976ZM13.1793 2.60953L13.1702 2.63665C12.7349 2.5515 12.5233 2.85686 12.4066 3.21375C12.3437 3.15029 12.2808 3.089 12.2174 3.03097C12.1592 2.73534 12.0772 2.44509 11.9723 2.16315C12.4092 2.24613 12.8516 2.36166 13.1793 2.61116V2.60953ZM9.6221 2.09969C9.99514 2.27976 10.2568 2.03568 10.4572 1.75581C10.6986 1.60394 10.8249 1.6571 10.867 1.675C11.0716 1.76124 11.2715 2.0807 11.4292 2.5515C10.8483 2.44302 10.47 2.71421 9.93705 3.35748C9.55069 3.05375 9.29755 3.18663 8.98047 3.44698C8.9421 3.39274 8.91971 3.35206 8.86909 3.28914C9.00386 2.82897 9.26403 2.41711 9.61943 2.10131L9.6221 2.09969ZM8.24025 3.14975V3.15355C7.6258 3.65742 7.07689 4.32185 6.56689 5.17394C6.53309 5.12213 6.48541 5.08126 6.4295 5.05617C6.37359 5.03108 6.31179 5.02283 6.25141 5.03238C6.24848 4.94189 6.25133 4.8513 6.25993 4.76118C6.78858 4.26381 7.46805 3.60318 8.24025 3.14975ZM5.84959 5.61382C5.89053 5.6455 5.93624 5.67023 5.98495 5.68704C6.002 6.81466 6.07181 7.95097 6.19278 9.06991C5.94498 9.68064 5.743 10.2556 5.61137 10.6542C5.47282 10.402 5.13655 9.73217 4.52369 9.88078C4.46409 9.78029 4.39069 9.68897 4.30573 9.60959C4.17943 8.24168 4.62548 6.7588 5.62736 5.18913C5.65401 5.36378 5.71849 5.51347 5.84959 5.61382ZM1.89162 9.25053C2.18419 7.89944 2.66595 6.67635 3.29852 5.67077C3.43076 6.23027 3.64643 6.76585 3.93802 7.25888C3.68808 8.08222 3.59642 8.88279 3.66517 9.65569C2.62065 10.594 2.25454 13.0706 2.13836 14.5014C2.00833 14.288 1.88256 14.0711 1.76106 13.8505C1.50846 12.4517 1.55162 10.8218 1.89162 9.25053ZM1.16952 14.106C2.04031 15.7087 3.1056 17.0604 4.4347 18.5536C4.3942 18.9793 4.39527 19.4081 4.43789 19.8336C3.93854 19.6077 3.4579 19.3413 3.00062 19.0368C1.88736 17.3625 1.38375 15.6436 1.13542 14.0409C1.14501 14.0626 1.15727 14.0843 1.16952 14.106Z" fill="#8BA89A" stroke="#8BA89A" stroke-width="0.3"/>
</svg>
