<svg width="117" height="20" viewBox="0 0 117 20" fill="none" xmlns="http://www.w3.org/2000/svg">
<path d="M0.899292 13.7066C0.853663 13.7402 0.820197 13.7881 0.804087 13.843C0.787976 13.898 0.790121 13.9568 0.810189 14.0103C2.06744 17.3657 4.2362 17.7558 7.25804 18.4141C7.25804 18.8584 7.2299 19.317 7.54155 19.5383C7.95083 19.8473 8.72932 20 9.52102 20C10.3455 20 11.1837 19.8342 11.6378 19.5053C12.0074 19.2515 11.9622 18.759 11.9648 18.2835C13.0417 18.2058 14.0922 17.4937 14.5505 16.4866C16.2447 15.6396 17.3608 13.8077 17.9257 11.0567C17.9362 11.0054 17.9312 10.9522 17.9114 10.9038C17.8916 10.8555 17.858 10.8144 17.8149 10.7858C17.7718 10.7572 17.7213 10.7426 17.6699 10.7437C17.6184 10.7448 17.5686 10.7616 17.5267 10.792L17.4035 10.8814C17.5025 10.2995 17.482 9.7031 17.3434 9.12968C17.4819 7.73857 17.5139 6.1357 16.903 4.71985C16.8823 4.6729 16.8483 4.63324 16.8055 4.6059C16.7626 4.57856 16.7128 4.56476 16.6622 4.56625C16.6117 4.56773 16.5627 4.58444 16.5215 4.61425C16.4802 4.64406 16.4486 4.68564 16.4306 4.73374C16.2565 5.19814 16.0543 5.65114 15.8252 6.09014C15.5604 4.671 14.931 3.34857 14.0009 2.25741C13.9668 2.21759 13.9215 2.18929 13.8712 2.17628C13.8208 2.16327 13.7678 2.16617 13.7191 2.18459C13.6704 2.203 13.6284 2.23607 13.5986 2.27938C13.5688 2.3227 13.5527 2.37421 13.5524 2.42707L13.2263 2.35201C12.6908 1.42561 11.7657 0.75001 10.8124 0.605952C10.6738 0.581653 10.5689 0.68232 10.511 0.79991C10.0552 0.505719 9.50311 0.427615 9.0269 0.356887C8.73486 0.00542019 8.34476 -0.14992 7.82208 0.187662C7.76912 0.231845 7.72223 0.283071 7.68267 0.339965C7.64142 0.298978 7.58777 0.273377 7.53043 0.267313C7.47308 0.261248 7.41541 0.275076 7.36676 0.306554C7.10587 0.478203 6.88181 0.701816 6.70807 0.963928C6.02125 1.23208 5.28583 1.81569 4.75163 2.31729C4.72686 2.28807 4.69602 2.26482 4.66133 2.24922C4.62664 2.23363 4.58898 2.22607 4.55107 2.22711C4.51317 2.22815 4.47596 2.23775 4.44215 2.25523C4.40833 2.2727 4.37876 2.29761 4.35557 2.32814C3.83374 3.01777 3.43327 3.6925 3.15417 4.35233C2.96686 3.93929 2.85035 3.49668 2.80969 3.04366C2.80508 2.99169 2.78524 2.94232 2.75273 2.90197C2.72022 2.86161 2.67655 2.83214 2.62737 2.81736C2.5782 2.80257 2.5258 2.80318 2.47697 2.81908C2.42813 2.83498 2.38512 2.86546 2.35351 2.90654C1.16959 4.44909 0.493424 6.76834 0.531794 8.93442L0.492145 8.83853C0.468938 8.78148 0.426563 8.73468 0.372587 8.70649C0.318611 8.6783 0.256547 8.67055 0.197477 8.68463C0.138406 8.69871 0.0861753 8.7337 0.0501091 8.78335C0.0140429 8.833 -0.00351039 8.89408 0.000583299 8.95569C0.0977871 10.3876 0.319054 12.0269 1.13505 13.6727C1.09601 13.6585 1.05414 13.6541 1.01307 13.66C0.971996 13.6659 0.932949 13.6819 0.899292 13.7066ZM1.69696 14.7375C3.04033 15.6752 4.37177 16.1326 6.24124 16.3304C6.13977 16.5843 6.04854 16.773 6.01614 17.0555C5.95858 17.4091 5.91765 17.5441 5.8132 17.5527C4.09252 17.1427 2.68349 16.6116 1.69696 14.7375ZM1.99539 11.5487C1.85342 10.8245 2.32751 7.95596 2.95464 7.38623C3.03096 7.49905 3.20533 7.72425 3.52252 7.60883C3.55534 7.61577 3.6372 7.66263 3.77448 7.91647C4.34469 8.97341 5.17038 9.86485 6.17345 10.5065C6.04321 10.7542 5.92996 11.0108 5.83452 11.2745C5.71387 11.2428 5.57872 11.2654 5.45892 11.2901C5.24106 11.3309 5.14983 11.3392 5.05987 11.2654C4.81217 11.1066 4.34449 11.2107 4.01493 11.6837C3.67386 12.161 3.49139 12.8774 3.40272 13.3664C2.9037 12.8012 2.43409 12.2099 1.99582 11.5947C1.99694 11.5794 1.9968 11.564 1.99539 11.5487ZM6.52773 2.25741C6.75156 2.59586 7.06491 2.549 7.30579 2.33552C7.32626 2.31946 7.35311 2.2982 7.37528 2.28301C7.59954 2.4249 7.756 2.83365 7.87495 3.16732C7.76879 3.13999 7.61318 3.17644 7.55179 3.28535C7.36889 3.59256 7.14634 3.87763 6.94682 4.17183C6.90419 4.19092 6.86155 4.21261 6.81892 4.2304C6.11163 3.73444 5.52244 4.75891 5.14556 5.49872C5.11288 5.06944 5.08957 4.63973 5.07565 4.20958C5.12074 4.18538 5.1576 4.14787 5.18138 4.10197C5.59364 3.30834 6.03575 2.70261 6.52773 2.25741ZM9.5888 2.41883C9.57944 2.64923 9.58928 2.88003 9.61822 3.10875C9.19189 2.92911 8.66025 2.85404 8.35457 2.98638C8.27539 2.74501 8.1742 2.5117 8.0523 2.28952C8.6999 1.44123 8.87768 1.66556 9.5888 2.41883ZM15.3822 8.68362C14.7189 9.88599 13.9886 11.074 12.9654 11.9848C12.9108 11.9679 12.8554 11.9518 12.7995 11.9375C12.292 10.9196 11.6516 9.97625 10.8955 9.13315C10.5775 8.74003 10.2206 8.47752 9.85228 8.35212C10.1601 7.38753 10.288 6.24895 10.9275 5.50176C10.962 5.45012 10.9936 5.43971 11.205 5.46618C11.3594 5.48527 11.5521 5.50957 11.7337 5.41628C11.7552 5.40474 11.775 5.39013 11.7925 5.37289C11.8616 5.3078 11.8867 5.31605 11.9034 5.32169C13.5183 5.63844 14.5722 7.18316 15.3822 8.68362ZM16.5986 11.8915C16.2618 12.7654 15.6862 13.6341 15.0071 14.311C14.99 13.3056 14.3471 12.6431 13.491 12.1966C14.6221 11.1443 15.3562 9.78749 16.0865 8.47535C16.2217 8.53783 16.4097 8.47535 16.5099 8.45192C17.2219 9.60655 16.9384 11.0246 16.6003 11.8915H16.5986ZM11.9289 16.6446C10.9484 16.3226 10.0181 15.5975 9.11515 15.1984C9.95545 14.4607 10.6461 13.6727 11.3474 12.6509C11.6356 12.781 12.0053 12.6292 12.1455 12.351C13.5268 12.4673 15.0177 13.5851 14.3198 15.01L13.7008 15.6201C13.5575 15.3828 13.2246 15.345 13.0553 15.5767C12.7073 15.9615 12.3307 16.3185 11.9289 16.6446ZM8.21985 8.80121C8.29702 8.78125 8.35116 8.7895 8.41767 8.88799C8.45455 8.94296 8.51072 8.98146 8.57463 8.99558C8.63854 9.0097 8.70533 8.99838 8.76129 8.96393C9.57857 8.46493 10.2535 9.15442 10.5165 9.47898C11.1579 10.1929 11.713 10.9825 12.1698 11.8308C12.0846 11.8273 11.9925 11.8082 11.914 11.8503C11.827 11.8987 11.757 11.9737 11.7141 12.0647C11.7081 12.0768 11.6983 12.0924 11.6928 12.1046C11.6753 12.1358 11.6465 12.1588 11.6126 12.1688C11.5943 12.1761 11.5745 12.1783 11.555 12.1753C11.541 12.128 11.5141 12.0856 11.4775 12.0532C11.4409 12.0207 11.396 11.9994 11.348 11.9917C11.3 11.984 11.2509 11.9902 11.2062 12.0096C11.1615 12.0291 11.1231 12.0609 11.0955 12.1015C10.4986 13.0019 9.92006 13.7152 9.25584 14.3626C8.13288 13.8754 7.3156 12.8075 6.59211 11.8616C6.50268 11.7385 6.40189 11.6245 6.29112 11.521C6.46165 10.8944 7.57268 8.96827 8.21985 8.80121ZM11.2703 4.94852C11.069 4.92379 10.7335 4.8817 10.5152 5.19802C9.99467 5.82546 9.79046 6.61691 9.59179 7.38406C9.07644 6.34076 8.46018 5.35234 7.75216 4.43347C7.69385 4.35169 7.62453 4.27866 7.54624 4.21652C7.65681 4.06378 7.76353 3.90844 7.86642 3.7505C7.92731 3.78758 7.99633 3.80861 8.06722 3.81168C8.33027 3.81168 8.42449 3.61338 8.50251 3.48668C9.3232 3.19379 10.9219 4.41308 11.2711 4.94766L11.2703 4.94852ZM5.37536 6.21901C5.98757 4.83267 6.33759 4.64696 6.42925 4.62309C6.45014 4.61789 6.47658 4.61094 6.52944 4.66648C6.70296 4.83397 6.98007 4.74285 7.10584 4.67256C7.14163 4.65315 7.17936 4.63773 7.21839 4.62656C7.22905 4.6296 7.26103 4.64739 7.34629 4.75674C8.17039 5.81982 8.79881 6.90893 9.38587 8.13473C9.37223 8.17812 9.35688 8.22411 9.34324 8.26881C9.11431 8.27026 8.88843 8.32222 8.68114 8.42111C7.89584 7.83056 6.94639 9.19 6.42414 10.0552C5.7097 9.59423 5.09129 8.99477 4.60412 8.29093C4.72648 7.9642 4.96395 7.13977 5.37536 6.21901ZM4.4289 11.99C4.59645 11.7557 4.72733 11.7197 4.80535 11.7193C5.12425 11.9236 5.40222 11.8199 5.68914 11.7783C5.85967 11.7869 6.03021 11.9766 6.18624 12.1814C6.90504 13.1212 7.71209 14.1752 8.84485 14.744C8.73571 14.8408 8.62444 14.9371 8.50976 15.0326C8.2369 15.0096 8.00754 15.0786 7.82421 15.2387C7.267 14.7315 6.74772 15.224 6.45995 15.8288C5.47128 15.7342 4.64036 15.5685 3.88234 15.2968C3.67216 14.6711 3.86699 12.7754 4.4289 11.9905V11.99ZM6.37639 17.6838C6.50429 17.4117 6.50429 17.1002 6.57889 16.862C6.72172 16.5378 7.01631 15.6414 7.33691 15.5533C7.4047 15.545 7.51043 15.6336 7.61915 15.7902C7.64376 15.8252 7.67649 15.8534 7.71443 15.8723C7.75237 15.8913 7.79432 15.9003 7.83655 15.8988C7.87878 15.8972 7.91996 15.885 7.95642 15.8632C7.99288 15.8415 8.02348 15.8109 8.04548 15.7741C8.30512 15.335 8.82013 15.5759 9.93371 16.2302C10.3929 16.4996 10.9015 16.7982 11.4327 17.0164C10.3967 17.7376 9.04523 18.3151 7.60678 17.9645C7.18599 17.8604 6.78609 17.7736 6.37639 17.6838ZM13.6492 16.9188C13.3992 17.1898 13.0973 17.4058 12.762 17.5533C12.4267 17.7007 12.0653 17.7766 11.7 17.7762C11.657 17.7782 11.6153 17.7911 11.5785 17.8139C11.5418 17.8366 11.5113 17.8685 11.4898 17.9064C11.4699 17.9432 11.4588 17.9842 11.4574 18.0261C11.4527 18.181 11.4532 18.3195 11.4532 18.4414C11.4532 18.8623 11.4455 19.0055 11.3406 19.0814C10.6487 19.5839 8.49313 19.6073 7.84468 19.1196C7.76708 19.0632 7.76794 18.8202 7.76836 18.5269C9.85697 18.9317 12.0313 17.4668 13.2932 16.0783C13.3078 16.1406 13.3338 16.1995 13.3699 16.2519C13.3913 16.2824 13.4189 16.3079 13.4508 16.3266C13.4828 16.3452 13.5183 16.3567 13.555 16.3601C13.5916 16.3635 13.6286 16.3588 13.6633 16.3464C13.6981 16.3339 13.7297 16.314 13.7562 16.2879L14.2448 15.8067C14.1464 16.2241 13.9409 16.6075 13.6492 16.9175V16.9188ZM17.273 11.6164C16.7725 13.5907 15.9339 14.9805 14.7739 15.7611C14.8061 15.568 14.8181 15.3719 14.8097 15.1762C15.9404 14.2716 16.7812 13.0449 17.2248 11.6524L17.273 11.6164ZM13.6918 2.99463C13.7271 3.00253 13.7636 3.00275 13.7989 2.99527C13.8343 2.98779 13.8677 2.97279 13.8969 2.95124C14.76 4.09637 15.2874 5.46659 15.418 6.90372C15.4229 6.95822 15.4444 7.00979 15.4797 7.0511C15.5149 7.09242 15.5621 7.12137 15.6144 7.13386C15.6668 7.14635 15.7217 7.14174 15.7713 7.12068C15.8209 7.09962 15.8627 7.06318 15.8909 7.01654C16.1767 6.54238 16.4315 6.04954 16.6536 5.54125C16.8936 6.37262 16.9294 7.26344 16.8996 8.1152C16.729 7.91604 16.5649 7.89825 16.3675 7.95032L16.3313 7.85052C16.3145 7.80404 16.2851 7.76339 16.2464 7.73334C16.2077 7.70329 16.1615 7.68508 16.113 7.68084C16.0645 7.67661 16.0159 7.68652 15.9728 7.70943C15.9297 7.73233 15.8938 7.76728 15.8695 7.81016C15.805 7.92385 15.7409 8.03825 15.6773 8.15339C15.0625 7.0608 14.313 5.97689 13.2979 5.33297C13.4511 4.54282 13.4971 3.73502 13.4347 2.93214L13.6918 2.99463ZM10.9057 1.15181C11.735 1.33666 12.496 2.00444 12.9155 2.84623C12.9847 3.59048 12.9549 4.34084 12.8268 5.07696C12.5769 4.96196 12.315 4.87594 12.0462 4.82052C11.9621 4.79492 11.8733 4.78986 11.787 4.80577C11.5175 4.33671 10.881 3.77827 10.204 3.39166C10.0804 3.1209 10.048 2.12681 10.2121 1.83218C10.2301 1.84411 10.2473 1.85746 10.2633 1.8721C10.2929 1.89862 10.3283 1.91778 10.3665 1.92808C10.4046 1.93838 10.4446 1.93954 10.4833 1.93147C10.522 1.9234 10.5584 1.90632 10.5895 1.88156C10.6206 1.85681 10.6457 1.82506 10.6627 1.78879C10.7599 1.58572 10.8149 1.35228 10.9057 1.15181ZM10.3089 1.28762L10.3016 1.30932C9.95332 1.2412 9.78406 1.48549 9.6907 1.771C9.64039 1.72023 9.59008 1.6712 9.53935 1.62477C9.49279 1.38827 9.4272 1.15607 9.34324 0.930517C9.69283 0.996905 10.0467 1.08933 10.3089 1.28893V1.28762ZM7.46311 0.879749C7.76154 1.02381 7.97087 0.828548 8.13117 0.60465C8.3243 0.483155 8.42534 0.525678 8.45902 0.539997C8.62273 0.608989 8.78261 0.864562 8.9088 1.2412C8.4441 1.15441 8.1414 1.37137 7.71507 1.88599C7.40598 1.643 7.20347 1.74931 6.9498 1.95758C6.91911 1.91419 6.9012 1.88165 6.8607 1.83131C6.96852 1.46318 7.17665 1.13369 7.46098 0.881051L7.46311 0.879749ZM6.35763 1.7198V1.72284C5.86607 2.12594 5.42694 2.65748 5.01894 3.33915C4.9919 3.2977 4.95376 3.26501 4.90903 3.24494C4.8643 3.22487 4.81486 3.21826 4.76656 3.2259C4.76421 3.15351 4.76649 3.08104 4.77338 3.00895C5.1963 2.61105 5.73987 2.08255 6.35763 1.7198ZM4.4451 3.69105C4.47785 3.7164 4.51442 3.73618 4.55339 3.74963C4.56703 4.65173 4.62288 5.56077 4.71966 6.45593C4.52141 6.94451 4.35983 7.40446 4.25453 7.72338C4.14368 7.52161 3.87467 6.98573 3.38438 7.10462C3.3367 7.02423 3.27799 6.95117 3.21001 6.88767C3.10897 5.79335 3.46581 4.60704 4.26732 3.3513C4.28864 3.49102 4.34022 3.61078 4.4451 3.69105ZM1.27873 6.60042C1.51279 5.51955 1.89819 4.54108 2.40425 3.73661C2.51004 4.18421 2.68257 4.61268 2.91585 5.0071C2.7159 5.66578 2.64257 6.30623 2.69756 6.92455C1.86195 7.67522 1.56906 9.65645 1.47612 10.8011C1.3721 10.6304 1.27148 10.4569 1.17428 10.2804C0.972195 9.16136 1.00673 7.85746 1.27873 6.60042ZM0.701048 10.4848C1.39768 11.767 2.24991 12.8483 3.31319 14.0428C3.28079 14.3834 3.28164 14.7265 3.31575 15.0669C2.91627 14.8862 2.53175 14.673 2.16593 14.4295C1.27532 13.09 0.872433 11.7149 0.673762 10.4327C0.681436 10.4501 0.691242 10.4674 0.701048 10.4848Z" fill="#8BA89A"/>
<path d="M25.6692 1.5H26.3952V17.362H31.4992V18H25.6692V1.5ZM30.7546 4.734C31.6199 4.338 32.0526 3.66333 32.0526 2.71V0.179999H32.8446V2.71C32.8446 3.39933 32.6539 3.99333 32.2726 4.492C31.8913 4.976 31.3853 5.31333 30.7546 5.504V4.734ZM41.0886 18.242C40.1499 18.242 39.2772 18.0073 38.4706 17.538C37.6639 17.0687 37.0259 16.438 36.5566 15.646C36.0872 14.8393 35.8526 13.974 35.8526 13.05C35.8526 12.126 36.0872 11.268 36.5566 10.476C37.0259 9.66933 37.6639 9.03133 38.4706 8.562C39.2772 8.09267 40.1499 7.858 41.0886 7.858C42.0419 7.858 42.9439 8.11467 43.7946 8.628C44.6452 9.12667 45.2392 9.77933 45.5766 10.586V8.1H46.2806V18H45.5766V15.536C45.1806 16.3573 44.5646 17.0173 43.7286 17.516C42.9072 18 42.0272 18.242 41.0886 18.242ZM41.1326 17.626C41.9392 17.626 42.6872 17.4207 43.3766 17.01C44.0659 16.5847 44.6086 16.0273 45.0046 15.338C45.4152 14.634 45.6206 13.8713 45.6206 13.05C45.6206 12.2433 45.4152 11.488 45.0046 10.784C44.5939 10.08 44.0439 9.52267 43.3546 9.112C42.6652 8.68667 41.9172 8.474 41.1106 8.474C40.3039 8.474 39.5486 8.68667 38.8446 9.112C38.1552 9.53733 37.5979 10.102 37.1726 10.806C36.7619 11.51 36.5566 12.2653 36.5566 13.072C36.5566 13.8787 36.7619 14.634 37.1726 15.338C37.5979 16.0273 38.1626 16.5847 38.8666 17.01C39.5706 17.4207 40.3259 17.626 41.1326 17.626ZM49.0574 8.1H49.7614V10.388C50.0547 9.66933 50.4801 9.10467 51.0374 8.694C51.6094 8.28333 52.2547 8.078 52.9734 8.078C53.4281 8.078 53.8901 8.17333 54.3594 8.364V9.178C53.9341 8.85533 53.4574 8.694 52.9294 8.694C52.4014 8.694 51.8881 8.85533 51.3894 9.178C50.9054 9.50067 50.5094 9.93333 50.2014 10.476C49.9081 11.0187 49.7614 11.598 49.7614 12.214V18H49.0574V8.1ZM59.6463 18.132C58.5609 18.132 57.6589 17.802 56.9403 17.142C56.2363 16.482 55.8843 15.5727 55.8843 14.414V4.118H56.5883V8.1H59.6243V8.716H56.5883V14.414C56.5883 15.382 56.8743 16.1447 57.4463 16.702C58.0329 17.2447 58.7663 17.516 59.6463 17.516V18.132ZM62.3548 5.834C62.1495 5.834 61.9662 5.76067 61.8048 5.614C61.6582 5.46733 61.5848 5.284 61.5848 5.064C61.5848 4.85867 61.6582 4.68267 61.8048 4.536C61.9662 4.38933 62.1495 4.316 62.3548 4.316C62.5602 4.316 62.7362 4.38933 62.8828 4.536C63.0442 4.68267 63.1248 4.85867 63.1248 5.064C63.1248 5.284 63.0442 5.46733 62.8828 5.614C62.7362 5.76067 62.5602 5.834 62.3548 5.834ZM62.0028 8.1H62.7068V18H62.0028V8.1ZM70.6511 18.286C69.6977 18.286 68.8177 18.0587 68.0111 17.604C67.2191 17.1493 66.5884 16.526 66.1191 15.734C65.6497 14.942 65.4151 14.0473 65.4151 13.05C65.4151 12.126 65.6497 11.2753 66.1191 10.498C66.5884 9.706 67.2264 9.07533 68.0331 8.606C68.8544 8.13667 69.7564 7.902 70.7391 7.902C71.5604 7.902 72.2644 8.034 72.8511 8.298C73.4377 8.562 74.0097 8.97267 74.5671 9.53V10.718C74.0831 9.99933 73.5404 9.45667 72.9391 9.09C72.3524 8.70867 71.6191 8.518 70.7391 8.518C69.9324 8.518 69.1697 8.73067 68.4511 9.156C67.7471 9.56667 67.1824 10.124 66.7571 10.828C66.3317 11.532 66.1191 12.2873 66.1191 13.094C66.1191 13.974 66.3244 14.766 66.7351 15.47C67.1457 16.1593 67.6957 16.702 68.3851 17.098C69.0891 17.4793 69.8444 17.67 70.6511 17.67C72.2937 17.67 73.5991 16.9293 74.5671 15.448V16.636C74.0391 17.1933 73.4524 17.6113 72.8071 17.89C72.1764 18.154 71.4577 18.286 70.6511 18.286ZM76.5144 1.5H77.2184V10.146C77.5264 9.486 78.0471 8.94333 78.7804 8.518C79.5284 8.078 80.2838 7.858 81.0464 7.858C82.4398 7.858 83.5104 8.23933 84.2584 9.002C85.0211 9.76467 85.4024 10.8427 85.4024 12.236V18H84.6984V12.236C84.6984 11.0333 84.3758 10.1093 83.7304 9.464C83.0998 8.804 82.2051 8.474 81.0464 8.474C80.3424 8.474 79.6971 8.64267 79.1104 8.98C78.5238 9.30267 78.0618 9.75733 77.7244 10.344C77.3871 10.916 77.2184 11.5467 77.2184 12.236V18H76.5144V1.5ZM92.8444 18.242C91.9058 18.242 91.0331 18.0073 90.2264 17.538C89.4198 17.0687 88.7818 16.438 88.3124 15.646C87.8431 14.8393 87.6084 13.974 87.6084 13.05C87.6084 12.126 87.8431 11.268 88.3124 10.476C88.7818 9.66933 89.4198 9.03133 90.2264 8.562C91.0331 8.09267 91.9058 7.858 92.8444 7.858C93.7978 7.858 94.6998 8.11467 95.5504 8.628C96.4011 9.12667 96.9951 9.77933 97.3324 10.586V8.1H98.0364V18H97.3324V15.536C96.9364 16.3573 96.3204 17.0173 95.4844 17.516C94.6631 18 93.7831 18.242 92.8444 18.242ZM92.8884 17.626C93.6951 17.626 94.4431 17.4207 95.1324 17.01C95.8218 16.5847 96.3644 16.0273 96.7604 15.338C97.1711 14.634 97.3764 13.8713 97.3764 13.05C97.3764 12.2433 97.1711 11.488 96.7604 10.784C96.3498 10.08 95.7998 9.52267 95.1104 9.112C94.4211 8.68667 93.6731 8.474 92.8664 8.474C92.0598 8.474 91.3044 8.68667 90.6004 9.112C89.9111 9.53733 89.3538 10.102 88.9284 10.806C88.5178 11.51 88.3124 12.2653 88.3124 13.072C88.3124 13.8787 88.5178 14.634 88.9284 15.338C89.3538 16.0273 89.9184 16.5847 90.6224 17.01C91.3264 17.4207 92.0818 17.626 92.8884 17.626ZM105.169 18.242C103.776 18.242 102.698 17.8607 101.935 17.098C101.187 16.3353 100.813 15.2573 100.813 13.864V8.1H101.517V13.864C101.517 15.0667 101.833 15.998 102.463 16.658C103.109 17.3033 104.011 17.626 105.169 17.626C105.873 17.626 106.519 17.472 107.105 17.164C107.692 16.8413 108.154 16.394 108.491 15.822C108.829 15.25 108.997 14.5973 108.997 13.864V8.1H109.701V18H108.997V16.152C108.66 16.768 108.154 17.274 107.479 17.67C106.805 18.0513 106.035 18.242 105.169 18.242ZM116.021 18.132C114.936 18.132 114.034 17.802 113.315 17.142C112.611 16.482 112.259 15.5727 112.259 14.414V4.118H112.963V8.1H115.999V8.716H112.963V14.414C112.963 15.382 113.249 16.1447 113.821 16.702C114.408 17.2447 115.141 17.516 116.021 17.516V18.132Z" fill="#8BA89A"/>
<path d="M25.6692 1.5V1.4H25.5692V1.5H25.6692ZM26.3952 1.5H26.4952V1.4H26.3952V1.5ZM26.3952 17.362H26.2952V17.462H26.3952V17.362ZM31.4992 17.362H31.5992V17.262H31.4992V17.362ZM31.4992 18V18.1H31.5992V18H31.4992ZM25.6692 18H25.5692V18.1H25.6692V18ZM25.6692 1.6H26.3952V1.4H25.6692V1.6ZM26.2952 1.5V17.362H26.4952V1.5H26.2952ZM26.3952 17.462H31.4992V17.262H26.3952V17.462ZM31.3992 17.362V18H31.5992V17.362H31.3992ZM31.4992 17.9H25.6692V18.1H31.4992V17.9ZM25.7692 18V1.5H25.5692V18H25.7692ZM30.7546 4.734L30.713 4.64307L30.6546 4.66979V4.734H30.7546ZM32.0526 0.179999V0.0799986H31.9526V0.179999H32.0526ZM32.8446 0.179999H32.9446V0.0799986H32.8446V0.179999ZM32.2726 4.492L32.3511 4.55389L32.352 4.55274L32.2726 4.492ZM30.7546 5.504H30.6546V5.6387L30.7835 5.59972L30.7546 5.504ZM30.7962 4.82493C31.243 4.62047 31.5838 4.34127 31.8123 3.98498C32.0408 3.6287 32.1526 3.20213 32.1526 2.71H31.9526C31.9526 3.1712 31.8481 3.55863 31.6439 3.87702C31.4397 4.19539 31.1315 4.45153 30.713 4.64307L30.7962 4.82493ZM32.1526 2.71V0.179999H31.9526V2.71H32.1526ZM32.0526 0.279999H32.8446V0.0799986H32.0526V0.279999ZM32.7446 0.179999V2.71H32.9446V0.179999H32.7446ZM32.7446 2.71C32.7446 3.37966 32.5598 3.95176 32.1932 4.43125L32.352 4.55274C32.748 4.03491 32.9446 3.41901 32.9446 2.71H32.7446ZM32.194 4.43011C31.8263 4.89688 31.3381 5.22311 30.7257 5.40828L30.7835 5.59972C31.4324 5.40356 31.9562 5.05512 32.3511 4.55389L32.194 4.43011ZM30.8546 5.504V4.734H30.6546V5.504H30.8546ZM38.4706 17.538L38.4203 17.6244L38.4203 17.6244L38.4706 17.538ZM36.5566 15.646L36.4701 15.6963L36.4705 15.697L36.5566 15.646ZM36.5566 10.476L36.6426 10.527L36.643 10.5263L36.5566 10.476ZM38.4706 8.562L38.4203 8.47556L38.4203 8.47556L38.4706 8.562ZM43.7946 8.628L43.7429 8.71363L43.744 8.71427L43.7946 8.628ZM45.5766 10.586L45.4843 10.6246L45.6766 10.586H45.5766ZM45.5766 8.1V8H45.4766V8.1H45.5766ZM46.2806 8.1H46.3806V8H46.2806V8.1ZM46.2806 18V18.1H46.3806V18H46.2806ZM45.5766 18H45.4766V18.1H45.5766V18ZM45.5766 15.536H45.6766L45.4865 15.4926L45.5766 15.536ZM43.7286 17.516L43.7793 17.6022L43.7798 17.6019L43.7286 17.516ZM43.3766 17.01L43.4278 17.0959L43.4291 17.0951L43.3766 17.01ZM45.0046 15.338L44.9182 15.2876L44.9179 15.2882L45.0046 15.338ZM45.0046 10.784L44.9182 10.8344L44.9182 10.8344L45.0046 10.784ZM43.3546 9.112L43.3021 9.19711L43.3034 9.19791L43.3546 9.112ZM38.8446 9.112L38.7929 9.0264L38.7921 9.0269L38.8446 9.112ZM37.1726 10.806L37.087 10.7543L37.0862 10.7556L37.1726 10.806ZM37.1726 15.338L37.0862 15.3884L37.0875 15.3905L37.1726 15.338ZM38.8666 17.01L38.8149 17.0956L38.8162 17.0964L38.8666 17.01ZM41.0886 18.142C40.1675 18.142 39.3122 17.912 38.5209 17.4516L38.4203 17.6244C39.2423 18.1027 40.1323 18.342 41.0886 18.342V18.142ZM38.5209 17.4516C37.7287 16.9907 37.1031 16.3721 36.6426 15.595L36.4705 15.697C36.9487 16.5039 37.5991 17.1466 38.4203 17.6244L38.5209 17.4516ZM36.643 15.5957C36.1825 14.8042 35.9526 13.9561 35.9526 13.05H35.7526C35.7526 13.9919 35.992 14.8745 36.4701 15.6963L36.643 15.5957ZM35.9526 13.05C35.9526 12.1439 36.1825 11.3035 36.6426 10.527L36.4705 10.425C35.992 11.2325 35.7526 12.1081 35.7526 13.05H35.9526ZM36.643 10.5263C37.1036 9.7346 37.7292 9.10905 38.5209 8.64843L38.4203 8.47556C37.5986 8.95361 36.9482 9.60407 36.4701 10.4257L36.643 10.5263ZM38.5209 8.64843C39.3122 8.18804 40.1675 7.958 41.0886 7.958V7.758C40.1323 7.758 39.2423 7.99729 38.4203 8.47556L38.5209 8.64843ZM41.0886 7.958C42.0229 7.958 42.9071 8.20928 43.7429 8.71362L43.8462 8.54238C42.9807 8.02005 42.0609 7.758 41.0886 7.758V7.958ZM43.744 8.71427C44.5785 9.20344 45.1564 9.84043 45.4843 10.6246L45.6688 10.5474C45.3221 9.71824 44.712 9.04989 43.8451 8.54173L43.744 8.71427ZM45.6766 10.586V8.1H45.4766V10.586H45.6766ZM45.5766 8.2H46.2806V8H45.5766V8.2ZM46.1806 8.1V18H46.3806V8.1H46.1806ZM46.2806 17.9H45.5766V18.1H46.2806V17.9ZM45.6766 18V15.536H45.4766V18H45.6766ZM45.4865 15.4926C45.0996 16.295 44.4977 16.9408 43.6773 17.4301L43.7798 17.6019C44.6314 17.0939 45.2616 16.4196 45.6667 15.5794L45.4865 15.4926ZM43.6778 17.4298C42.8716 17.9049 42.0091 18.142 41.0886 18.142V18.342C42.0454 18.342 42.9429 18.0951 43.7793 17.6022L43.6778 17.4298ZM41.1326 17.726C41.9572 17.726 42.7229 17.5159 43.4278 17.0959L43.3254 16.9241C42.6516 17.3255 41.9213 17.526 41.1326 17.526V17.726ZM43.4291 17.0951C44.1323 16.6612 44.6868 16.0919 45.0913 15.3878L44.9179 15.2882C44.5303 15.9628 43.9995 16.5081 43.3241 16.9249L43.4291 17.0951ZM45.091 15.3884C45.5106 14.669 45.7206 13.8889 45.7206 13.05H45.5206C45.5206 13.8538 45.3199 14.599 44.9182 15.2876L45.091 15.3884ZM45.7206 13.05C45.7206 12.2254 45.5104 11.4527 45.091 10.7336L44.9182 10.8344C45.32 11.5233 45.5206 12.2612 45.5206 13.05H45.7206ZM45.091 10.7336C44.6719 10.0152 44.1099 9.44557 43.4058 9.02609L43.3034 9.19791C43.9779 9.59977 44.5159 10.1448 44.9182 10.8344L45.091 10.7336ZM43.4071 9.0269C42.702 8.59187 41.9359 8.374 41.1106 8.374V8.574C41.8986 8.574 42.6284 8.78147 43.3021 9.1971L43.4071 9.0269ZM41.1106 8.374C40.2853 8.374 39.5121 8.59184 38.7929 9.02641L38.8963 9.19759C39.585 8.78149 40.3225 8.574 41.1106 8.574V8.374ZM38.7921 9.0269C38.089 9.46071 37.5204 10.0369 37.087 10.7543L37.2582 10.8577C37.6754 10.1671 38.2215 9.61396 38.8971 9.1971L38.7921 9.0269ZM37.0862 10.7556C36.6667 11.4747 36.4566 12.2474 36.4566 13.072H36.6566C36.6566 12.2832 36.8571 11.5453 37.259 10.8564L37.0862 10.7556ZM36.4566 13.072C36.4566 13.8966 36.6667 14.6693 37.0862 15.3884L37.259 15.2876C36.8571 14.5987 36.6566 13.8608 36.6566 13.072H36.4566ZM37.0875 15.3905C37.5213 16.0936 38.0975 16.6622 38.8149 17.0956L38.9183 16.9244C38.2277 16.5072 37.6745 15.9611 37.2577 15.2855L37.0875 15.3905ZM38.8162 17.0964C39.5353 17.5159 40.308 17.726 41.1326 17.726V17.526C40.3438 17.526 39.6058 17.3255 38.917 16.9236L38.8162 17.0964ZM49.0574 8.1V8H48.9574V8.1H49.0574ZM49.7614 8.1H49.8614V8H49.7614V8.1ZM49.7614 10.388H49.6614L49.854 10.4258L49.7614 10.388ZM51.0374 8.694L50.9791 8.61276L50.9781 8.61349L51.0374 8.694ZM54.3594 8.364H54.4594V8.29669L54.397 8.27135L54.3594 8.364ZM54.3594 9.178L54.2989 9.25767L54.4594 9.37938V9.178H54.3594ZM51.3894 9.178L51.3351 9.09403L51.3339 9.09479L51.3894 9.178ZM50.2014 10.476L50.1144 10.4266L50.1134 10.4284L50.2014 10.476ZM49.7614 18V18.1H49.8614V18H49.7614ZM49.0574 18H48.9574V18.1H49.0574V18ZM49.0574 8.2H49.7614V8H49.0574V8.2ZM49.6614 8.1V10.388H49.8614V8.1H49.6614ZM49.854 10.4258C50.1412 9.72203 50.5559 9.17298 51.0967 8.77451L50.9781 8.61349C50.4042 9.03635 49.9682 9.61664 49.6688 10.3502L49.854 10.4258ZM51.0957 8.77523C51.6503 8.37704 52.2752 8.178 52.9734 8.178V7.978C52.2343 7.978 51.5684 8.18963 50.9791 8.61277L51.0957 8.77523ZM52.9734 8.178C53.4138 8.178 53.863 8.27028 54.3217 8.45665L54.397 8.27135C53.9171 8.07638 53.4424 7.978 52.9734 7.978V8.178ZM54.2594 8.364V9.178H54.4594V8.364H54.2594ZM54.4198 9.09833C53.9773 8.76263 53.4795 8.594 52.9294 8.594V8.794C53.4353 8.794 53.8908 8.94803 54.2989 9.25767L54.4198 9.09833ZM52.9294 8.594C52.3798 8.594 51.8478 8.76225 51.3351 9.09404L51.4437 9.26196C51.9283 8.94841 52.423 8.794 52.9294 8.794V8.594ZM51.3339 9.09479C50.836 9.42675 50.4296 9.8714 50.1144 10.4266L50.2884 10.5254C50.5892 9.99527 50.9748 9.57458 51.4449 9.2612L51.3339 9.09479ZM50.1134 10.4284C49.8122 10.9857 49.6614 11.5814 49.6614 12.214H49.8614C49.8614 11.6146 50.0039 11.0516 50.2894 10.5236L50.1134 10.4284ZM49.6614 12.214V18H49.8614V12.214H49.6614ZM49.7614 17.9H49.0574V18.1H49.7614V17.9ZM49.1574 18V8.1H48.9574V18H49.1574ZM59.6463 18.132V18.232H59.7463V18.132H59.6463ZM56.9403 17.142L56.8719 17.215L56.8726 17.2157L56.9403 17.142ZM55.8843 4.118V4.018H55.7843V4.118H55.8843ZM56.5883 4.118H56.6883V4.018H56.5883V4.118ZM56.5883 8.1H56.4883V8.2H56.5883V8.1ZM59.6243 8.1H59.7243V8H59.6243V8.1ZM59.6243 8.716V8.816H59.7243V8.716H59.6243ZM56.5883 8.716V8.616H56.4883V8.716H56.5883ZM57.4463 16.702L57.3765 16.7736L57.3784 16.7754L57.4463 16.702ZM59.6463 17.516H59.7463V17.416H59.6463V17.516ZM59.6463 18.032C58.5829 18.032 57.706 17.7095 57.0079 17.0683L56.8726 17.2157C57.6119 17.8945 58.5389 18.232 59.6463 18.232V18.032ZM57.0087 17.069C56.3288 16.4317 55.9843 15.551 55.9843 14.414H55.7843C55.7843 15.5943 56.1437 16.5323 56.8719 17.215L57.0087 17.069ZM55.9843 14.414V4.118H55.7843V14.414H55.9843ZM55.8843 4.218H56.5883V4.018H55.8843V4.218ZM56.4883 4.118V8.1H56.6883V4.118H56.4883ZM56.5883 8.2H59.6243V8H56.5883V8.2ZM59.5243 8.1V8.716H59.7243V8.1H59.5243ZM59.6243 8.616H56.5883V8.816H59.6243V8.616ZM56.4883 8.716V14.414H56.6883V8.716H56.4883ZM56.4883 14.414C56.4883 15.4028 56.7812 16.1936 57.3765 16.7736L57.516 16.6304C56.9674 16.0958 56.6883 15.3612 56.6883 14.414H56.4883ZM57.3784 16.7754C57.9854 17.337 58.7439 17.616 59.6463 17.616V17.416C58.7887 17.416 58.0804 17.1524 57.5142 16.6286L57.3784 16.7754ZM59.5463 17.516V18.132H59.7463V17.516H59.5463ZM61.8048 5.614L61.734 5.68479L61.7376 5.68799L61.8048 5.614ZM61.8048 4.536L61.7375 4.46192L61.7341 4.46529L61.8048 4.536ZM62.8828 4.536L62.812 4.60679L62.8156 4.60999L62.8828 4.536ZM62.8828 5.614L62.8155 5.53992L62.8121 5.54329L62.8828 5.614ZM62.0028 8.1V8H61.9028V8.1H62.0028ZM62.7068 8.1H62.8068V8H62.7068V8.1ZM62.7068 18V18.1H62.8068V18H62.7068ZM62.0028 18H61.9028V18.1H62.0028V18ZM62.3548 5.734C62.176 5.734 62.0163 5.67107 61.8721 5.54001L61.7376 5.68799C61.9161 5.85026 62.123 5.934 62.3548 5.934V5.734ZM61.8756 5.54329C61.7489 5.4166 61.6848 5.25926 61.6848 5.064H61.4848C61.4848 5.30874 61.5675 5.51806 61.7341 5.68471L61.8756 5.54329ZM61.6848 5.064C61.6848 4.88549 61.7474 4.73484 61.8756 4.60671L61.7341 4.46529C61.5689 4.63049 61.4848 4.83184 61.4848 5.064H61.6848ZM61.8721 4.60999C62.0163 4.47893 62.176 4.416 62.3548 4.416V4.216C62.123 4.216 61.9161 4.29974 61.7376 4.462L61.8721 4.60999ZM62.3548 4.416C62.5334 4.416 62.684 4.47858 62.8121 4.60671L62.9536 4.46529C62.7883 4.30008 62.587 4.216 62.3548 4.216V4.416ZM62.8156 4.60999C62.9575 4.73903 63.0248 4.88875 63.0248 5.064H63.2248C63.2248 4.82859 63.1308 4.6263 62.9501 4.462L62.8156 4.60999ZM63.0248 5.064C63.0248 5.25612 62.9558 5.41249 62.8156 5.54001L62.9501 5.68799C63.1325 5.52218 63.2248 5.31188 63.2248 5.064H63.0248ZM62.8121 5.54329C62.684 5.67142 62.5334 5.734 62.3548 5.734V5.934C62.587 5.934 62.7883 5.84992 62.9536 5.68471L62.8121 5.54329ZM62.0028 8.2H62.7068V8H62.0028V8.2ZM62.6068 8.1V18H62.8068V8.1H62.6068ZM62.7068 17.9H62.0028V18.1H62.7068V17.9ZM62.1028 18V8.1H61.9028V18H62.1028ZM68.0111 17.604L67.9613 17.6907L67.962 17.6911L68.0111 17.604ZM66.1191 15.734L66.2051 15.683L66.2051 15.683L66.1191 15.734ZM66.1191 10.498L66.2047 10.5497L66.2051 10.549L66.1191 10.498ZM68.0331 8.606L67.9835 8.51917L67.9828 8.51956L68.0331 8.606ZM72.8511 8.298L72.8921 8.20681L72.8921 8.20681L72.8511 8.298ZM74.5671 9.53H74.6671V9.48858L74.6378 9.45929L74.5671 9.53ZM74.5671 10.718L74.4841 10.7739L74.6671 11.0455V10.718H74.5671ZM72.9391 9.09L72.8846 9.17388L72.887 9.17538L72.9391 9.09ZM68.4511 9.156L68.5015 9.24238L68.502 9.24206L68.4511 9.156ZM66.7571 10.828L66.8427 10.8797L66.8427 10.8797L66.7571 10.828ZM66.7351 15.47L66.6487 15.5204L66.6492 15.5212L66.7351 15.47ZM68.3851 17.098L68.3352 17.1847L68.3374 17.1859L68.3851 17.098ZM74.5671 15.448H74.6671V15.1122L74.4834 15.3933L74.5671 15.448ZM74.5671 16.636L74.6397 16.7048L74.6671 16.6758V16.636H74.5671ZM72.8071 17.89L72.8457 17.9822L72.8467 17.9818L72.8071 17.89ZM70.6511 18.186C69.7144 18.186 68.8514 17.9628 68.0602 17.5169L67.962 17.6911C68.7841 18.1545 69.6811 18.386 70.6511 18.386V18.186ZM68.0609 17.5173C67.2839 17.0713 66.6657 16.4603 66.2051 15.683L66.033 15.785C66.5111 16.5917 67.1542 17.2274 67.9613 17.6907L68.0609 17.5173ZM66.2051 15.683C65.7457 14.9077 65.5151 14.0309 65.5151 13.05H65.3151C65.3151 14.0637 65.5538 14.9763 66.033 15.785L66.2051 15.683ZM65.5151 13.05C65.5151 12.1439 65.7449 11.3111 66.2047 10.5497L66.0335 10.4463C65.5545 11.2395 65.3151 12.1081 65.3151 13.05H65.5151ZM66.2051 10.549C66.6656 9.77186 67.2912 9.15331 68.0834 8.69243L67.9828 8.51956C67.1616 8.99735 66.5112 9.64014 66.033 10.447L66.2051 10.549ZM68.0827 8.69282C68.8883 8.23247 69.7731 8.002 70.7391 8.002V7.802C69.7397 7.802 68.8205 8.04087 67.9835 8.51918L68.0827 8.69282ZM70.7391 8.002C71.55 8.002 72.2393 8.13237 72.81 8.38919L72.8921 8.20681C72.2895 7.93563 71.5708 7.802 70.7391 7.802V8.002ZM72.81 8.38919C73.3835 8.64724 73.9457 9.05008 74.4964 9.60071L74.6378 9.45929C74.0738 8.89525 73.492 8.47676 72.8921 8.20681L72.81 8.38919ZM74.4671 9.53V10.718H74.6671V9.53H74.4671ZM74.65 10.6621C74.1598 9.93421 73.6073 9.38031 72.9911 9.00462L72.887 9.17538C73.4736 9.53302 74.0064 10.0645 74.4841 10.7739L74.65 10.6621ZM72.9936 9.00615C72.387 8.61186 71.6335 8.418 70.7391 8.418V8.618C71.6047 8.618 72.3178 8.80547 72.8846 9.17384L72.9936 9.00615ZM70.7391 8.418C69.9138 8.418 69.1337 8.63582 68.4001 9.06994L68.502 9.24206C69.2058 8.82551 69.951 8.618 70.7391 8.618V8.418ZM68.4007 9.06962C67.6821 9.4888 67.1054 10.0581 66.6715 10.7763L66.8427 10.8797C67.2594 10.1899 67.812 9.64453 68.5015 9.24238L68.4007 9.06962ZM66.6715 10.7763C66.2369 11.4956 66.0191 12.2687 66.0191 13.094H66.2191C66.2191 12.3059 66.4266 11.5684 66.8427 10.8797L66.6715 10.7763ZM66.0191 13.094C66.0191 13.9902 66.2284 14.7999 66.6487 15.5204L66.8215 15.4196C66.4204 14.7321 66.2191 13.9578 66.2191 13.094H66.0191ZM66.6492 15.5212C67.0685 16.2251 67.6309 16.7801 68.3353 17.1847L68.4349 17.0113C67.7606 16.6239 67.223 16.0936 66.821 15.4188L66.6492 15.5212ZM68.3374 17.1859C69.0562 17.5752 69.8279 17.77 70.6511 17.77V17.57C69.8609 17.57 69.122 17.3834 68.4327 17.0101L68.3374 17.1859ZM70.6511 17.77C72.3305 17.77 73.666 17.0097 74.6508 15.5027L74.4834 15.3933C73.5321 16.849 72.257 17.57 70.6511 17.57V17.77ZM74.4671 15.448V16.636H74.6671V15.448H74.4671ZM74.4945 16.5672C73.9749 17.1156 73.3992 17.5254 72.7674 17.7982L72.8467 17.9818C73.5056 17.6973 74.1032 17.271 74.6397 16.7048L74.4945 16.5672ZM72.7685 17.7978C72.152 18.0558 71.4468 18.186 70.6511 18.186V18.386C71.4687 18.386 72.2008 18.2522 72.8457 17.9822L72.7685 17.7978ZM76.5144 1.5V1.4H76.4144V1.5H76.5144ZM77.2184 1.5H77.3184V1.4H77.2184V1.5ZM77.2184 10.146H77.1184L77.309 10.1883L77.2184 10.146ZM78.7804 8.518L78.8306 8.6045L78.8311 8.60419L78.7804 8.518ZM84.2584 9.002L84.187 9.07202L84.1877 9.07271L84.2584 9.002ZM85.4024 18V18.1H85.5024V18H85.4024ZM84.6984 18H84.5984V18.1H84.6984V18ZM83.7304 9.464L83.6581 9.5331L83.6597 9.53471L83.7304 9.464ZM79.1104 8.98L79.1586 9.06764L79.1603 9.06669L79.1104 8.98ZM77.7244 10.344L77.8106 10.3948L77.8111 10.3938L77.7244 10.344ZM77.2184 18V18.1H77.3184V18H77.2184ZM76.5144 18H76.4144V18.1H76.5144V18ZM76.5144 1.6H77.2184V1.4H76.5144V1.6ZM77.1184 1.5V10.146H77.3184V1.5H77.1184ZM77.309 10.1883C77.607 9.54971 78.112 9.02131 78.8306 8.6045L78.7302 8.4315C77.9822 8.86536 77.4458 9.42229 77.1278 10.1037L77.309 10.1883ZM78.8311 8.60419C79.5659 8.17196 80.3039 7.958 81.0464 7.958V7.758C80.2636 7.758 79.4909 7.98404 78.7297 8.43181L78.8311 8.60419ZM81.0464 7.958C82.4214 7.958 83.4631 8.33387 84.187 9.07202L84.3298 8.93198C83.5578 8.1448 82.4581 7.758 81.0464 7.758V7.958ZM84.1877 9.07271C84.9266 9.81159 85.3024 10.8611 85.3024 12.236H85.5024C85.5024 10.8242 85.1156 9.71774 84.3291 8.93129L84.1877 9.07271ZM85.3024 12.236V18H85.5024V12.236H85.3024ZM85.4024 17.9H84.6984V18.1H85.4024V17.9ZM84.7984 18V12.236H84.5984V18H84.7984ZM84.7984 12.236C84.7984 11.0156 84.4706 10.0628 83.8011 9.39329L83.6597 9.53471C84.2809 10.1559 84.5984 11.0511 84.5984 12.236H84.7984ZM83.8027 9.39491C83.1484 8.71017 82.2246 8.374 81.0464 8.374V8.574C82.1856 8.574 83.0511 8.89783 83.6581 9.53309L83.8027 9.39491ZM81.0464 8.374C80.3257 8.374 79.663 8.5469 79.0606 8.89331L79.1603 9.06669C79.7311 8.73844 80.3592 8.574 81.0464 8.574V8.374ZM79.0622 8.89238C78.4593 9.22397 77.9841 9.69179 77.6377 10.2942L77.8111 10.3938C78.1394 9.82288 78.5882 9.38136 79.1586 9.06762L79.0622 8.89238ZM77.6383 10.2932C77.2915 10.8812 77.1184 11.5295 77.1184 12.236H77.3184C77.3184 11.5638 77.4827 10.9508 77.8106 10.3948L77.6383 10.2932ZM77.1184 12.236V18H77.3184V12.236H77.1184ZM77.2184 17.9H76.5144V18.1H77.2184V17.9ZM76.6144 18V1.5H76.4144V18H76.6144ZM90.2264 17.538L90.1761 17.6244L90.1761 17.6244L90.2264 17.538ZM88.3124 15.646L88.226 15.6963L88.2264 15.697L88.3124 15.646ZM88.3124 10.476L88.3985 10.527L88.3989 10.5263L88.3124 10.476ZM90.2264 8.562L90.1761 8.47556L90.1761 8.47556L90.2264 8.562ZM95.5504 8.628L95.4988 8.71363L95.4999 8.71427L95.5504 8.628ZM97.3324 10.586L97.2402 10.6246L97.4324 10.586H97.3324ZM97.3324 8.1V8H97.2324V8.1H97.3324ZM98.0364 8.1H98.1364V8H98.0364V8.1ZM98.0364 18V18.1H98.1364V18H98.0364ZM97.3324 18H97.2324V18.1H97.3324V18ZM97.3324 15.536H97.4324L97.2424 15.4926L97.3324 15.536ZM95.4844 17.516L95.5352 17.6022L95.5357 17.6019L95.4844 17.516ZM95.1324 17.01L95.1836 17.0959L95.1849 17.0951L95.1324 17.01ZM96.7604 15.338L96.6741 15.2876L96.6737 15.2882L96.7604 15.338ZM96.7604 10.784L96.6741 10.8344L96.6741 10.8344L96.7604 10.784ZM95.1104 9.112L95.0579 9.19711L95.0593 9.19791L95.1104 9.112ZM90.6004 9.112L90.5487 9.0264L90.5479 9.0269L90.6004 9.112ZM88.9284 10.806L88.8428 10.7543L88.8421 10.7556L88.9284 10.806ZM88.9284 15.338L88.842 15.3884L88.8433 15.3905L88.9284 15.338ZM90.6224 17.01L90.5707 17.0956L90.572 17.0964L90.6224 17.01ZM92.8444 18.142C91.9233 18.142 91.068 17.912 90.2767 17.4516L90.1761 17.6244C90.9982 18.1027 91.8882 18.342 92.8444 18.342V18.142ZM90.2767 17.4516C89.4846 16.9907 88.859 16.3721 88.3985 15.595L88.2264 15.697C88.7046 16.5039 89.3549 17.1466 90.1761 17.6244L90.2767 17.4516ZM88.3989 15.5957C87.9383 14.8042 87.7084 13.9561 87.7084 13.05H87.5084C87.5084 13.9919 87.7479 14.8745 88.226 15.6963L88.3989 15.5957ZM87.7084 13.05C87.7084 12.1439 87.9383 11.3035 88.3985 10.527L88.2264 10.425C87.7479 11.2325 87.5084 12.1081 87.5084 13.05H87.7084ZM88.3989 10.5263C88.8595 9.7346 89.485 9.10905 90.2767 8.64843L90.1761 8.47556C89.3545 8.95361 88.704 9.60407 88.226 10.4257L88.3989 10.5263ZM90.2767 8.64843C91.068 8.18804 91.9233 7.958 92.8444 7.958V7.758C91.8882 7.758 90.9982 7.99729 90.1761 8.47556L90.2767 8.64843ZM92.8444 7.958C93.7788 7.958 94.663 8.20928 95.4988 8.71362L95.6021 8.54238C94.7365 8.02005 93.8168 7.758 92.8444 7.758V7.958ZM95.4999 8.71427C96.3343 9.20344 96.9123 9.84043 97.2402 10.6246L97.4247 10.5474C97.0779 9.71824 96.4679 9.04989 95.601 8.54173L95.4999 8.71427ZM97.4324 10.586V8.1H97.2324V10.586H97.4324ZM97.3324 8.2H98.0364V8H97.3324V8.2ZM97.9364 8.1V18H98.1364V8.1H97.9364ZM98.0364 17.9H97.3324V18.1H98.0364V17.9ZM97.4324 18V15.536H97.2324V18H97.4324ZM97.2424 15.4926C96.8555 16.295 96.2536 16.9408 95.4332 17.4301L95.5357 17.6019C96.3873 17.0939 97.0174 16.4196 97.4225 15.5794L97.2424 15.4926ZM95.4337 17.4298C94.6275 17.9049 93.765 18.142 92.8444 18.142V18.342C93.8012 18.342 94.6987 18.0951 95.5352 17.6022L95.4337 17.4298ZM92.8884 17.726C93.713 17.726 94.4787 17.5159 95.1836 17.0959L95.0813 16.9241C94.4075 17.3255 93.6772 17.526 92.8884 17.526V17.726ZM95.1849 17.0951C95.8882 16.6612 96.4427 16.0919 96.8471 15.3878L96.6737 15.2882C96.2862 15.9628 95.7554 16.5081 95.0799 16.9249L95.1849 17.0951ZM96.8468 15.3884C97.2665 14.669 97.4764 13.8889 97.4764 13.05H97.2764C97.2764 13.8538 97.0757 14.599 96.6741 15.2876L96.8468 15.3884ZM97.4764 13.05C97.4764 12.2254 97.2663 11.4527 96.8468 10.7336L96.6741 10.8344C97.0759 11.5233 97.2764 12.2612 97.2764 13.05H97.4764ZM96.8468 10.7336C96.4278 10.0152 95.8657 9.44557 95.1616 9.02609L95.0593 9.19791C95.7338 9.59977 96.2718 10.1448 96.6741 10.8344L96.8468 10.7336ZM95.1629 9.0269C94.4579 8.59187 93.6917 8.374 92.8664 8.374V8.574C93.6545 8.574 94.3843 8.78147 95.0579 9.1971L95.1629 9.0269ZM92.8664 8.374C92.0412 8.374 91.268 8.59184 90.5487 9.02641L90.6521 9.19759C91.3409 8.78149 92.0784 8.574 92.8664 8.574V8.374ZM90.5479 9.0269C89.8449 9.46071 89.2763 10.0369 88.8428 10.7543L89.014 10.8577C89.4313 10.1671 89.9774 9.61396 90.6529 9.1971L90.5479 9.0269ZM88.8421 10.7556C88.4226 11.4747 88.2124 12.2474 88.2124 13.072H88.4124C88.4124 12.2832 88.613 11.5453 89.0148 10.8564L88.8421 10.7556ZM88.2124 13.072C88.2124 13.8966 88.4226 14.6693 88.8421 15.3884L89.0148 15.2876C88.613 14.5987 88.4124 13.8608 88.4124 13.072H88.2124ZM88.8433 15.3905C89.2771 16.0936 89.8533 16.6622 90.5707 17.0956L90.6741 16.9244C89.9835 16.5072 89.4304 15.9611 89.0135 15.2855L88.8433 15.3905ZM90.572 17.0964C91.2912 17.5159 92.0639 17.726 92.8884 17.726V17.526C92.0997 17.526 91.3617 17.3255 90.6728 16.9236L90.572 17.0964ZM101.935 17.098L101.864 17.168L101.865 17.1687L101.935 17.098ZM100.813 8.1V8H100.713V8.1H100.813ZM101.517 8.1H101.617V8H101.517V8.1ZM102.463 16.658L102.391 16.7271L102.393 16.7287L102.463 16.658ZM107.105 17.164L107.152 17.2526L107.153 17.2516L107.105 17.164ZM108.997 8.1V8H108.897V8.1H108.997ZM109.701 8.1H109.801V8H109.701V8.1ZM109.701 18V18.1H109.801V18H109.701ZM108.997 18H108.897V18.1H108.997V18ZM108.997 16.152H109.097L108.91 16.104L108.997 16.152ZM107.479 17.67L107.528 17.7571L107.53 17.7562L107.479 17.67ZM105.169 18.142C103.794 18.142 102.745 17.7662 102.006 17.0273L101.865 17.1687C102.651 17.9552 103.757 18.342 105.169 18.342V18.142ZM102.007 17.028C101.282 16.2892 100.913 15.2394 100.913 13.864H100.713C100.713 15.2752 101.092 16.3815 101.864 17.168L102.007 17.028ZM100.913 13.864V8.1H100.713V13.864H100.913ZM100.813 8.2H101.517V8H100.813V8.2ZM101.417 8.1V13.864H101.617V8.1H101.417ZM101.417 13.864C101.417 15.084 101.737 16.0432 102.391 16.7271L102.536 16.5889C101.928 15.9528 101.617 15.0493 101.617 13.864H101.417ZM102.393 16.7287C103.061 17.3975 103.992 17.726 105.169 17.726V17.526C104.03 17.526 103.156 17.2092 102.534 16.5873L102.393 16.7287ZM105.169 17.726C105.888 17.726 106.55 17.5685 107.152 17.2525L107.059 17.0755C106.487 17.3755 105.858 17.526 105.169 17.526V17.726ZM107.153 17.2516C107.756 16.9204 108.231 16.4604 108.577 15.8728L108.405 15.7712C108.077 16.3276 107.628 16.7623 107.057 17.0764L107.153 17.2516ZM108.577 15.8728C108.925 15.2838 109.097 14.6133 109.097 13.864H108.897C108.897 14.5814 108.732 15.2162 108.405 15.7712L108.577 15.8728ZM109.097 13.864V8.1H108.897V13.864H109.097ZM108.997 8.2H109.701V8H108.997V8.2ZM109.601 8.1V18H109.801V8.1H109.601ZM109.701 17.9H108.997V18.1H109.701V17.9ZM109.097 18V16.152H108.897V18H109.097ZM108.91 16.104C108.582 16.7024 108.09 17.1958 107.429 17.5838L107.53 17.7562C108.218 17.3522 108.738 16.8336 109.085 16.2L108.91 16.104ZM107.43 17.5829C106.772 17.9548 106.019 18.142 105.169 18.142V18.342C106.05 18.342 106.837 18.1478 107.528 17.7571L107.43 17.5829ZM116.021 18.132V18.232H116.121V18.132H116.021ZM113.315 17.142L113.247 17.215L113.248 17.2157L113.315 17.142ZM112.259 4.118V4.018H112.159V4.118H112.259ZM112.963 4.118H113.063V4.018H112.963V4.118ZM112.963 8.1H112.863V8.2H112.963V8.1ZM115.999 8.1H116.099V8H115.999V8.1ZM115.999 8.716V8.816H116.099V8.716H115.999ZM112.963 8.716V8.616H112.863V8.716H112.963ZM113.821 16.702L113.751 16.7736L113.753 16.7754L113.821 16.702ZM116.021 17.516H116.121V17.416H116.021V17.516ZM116.021 18.032C114.958 18.032 114.081 17.7095 113.383 17.0683L113.248 17.2157C113.987 17.8945 114.914 18.232 116.021 18.232V18.032ZM113.384 17.069C112.704 16.4317 112.359 15.551 112.359 14.414H112.159C112.159 15.5943 112.519 16.5323 113.247 17.215L113.384 17.069ZM112.359 14.414V4.118H112.159V14.414H112.359ZM112.259 4.218H112.963V4.018H112.259V4.218ZM112.863 4.118V8.1H113.063V4.118H112.863ZM112.963 8.2H115.999V8H112.963V8.2ZM115.899 8.1V8.716H116.099V8.1H115.899ZM115.999 8.616H112.963V8.816H115.999V8.616ZM112.863 8.716V14.414H113.063V8.716H112.863ZM112.863 14.414C112.863 15.4028 113.156 16.1936 113.751 16.7736L113.891 16.6304C113.342 16.0958 113.063 15.3612 113.063 14.414H112.863ZM113.753 16.7754C114.36 17.337 115.119 17.616 116.021 17.616V17.416C115.164 17.416 114.455 17.1524 113.889 16.6286L113.753 16.7754ZM115.921 17.516V18.132H116.121V17.516H115.921Z" fill="#8BA89A"/>
</svg>
